# xmcd CD database file
#
# Track frame offsets:
#	150
#	15750
#	35910
#	54267
#	79678
#	98775
#	125883
#	144775
#	164343
#	183970
#	214382
#	241403
#
# Disc length: 3758 seconds
#
# Revision: 6
# Processed by: cddbd v1.4PL0 Copyright (c) Steve Scherf et al.
# Submitted via: CDex 1.40Beta8
#
DISCID=9b0eac0c
DTITLE=Vários - Revista Trip 90
DYEAR=2001
DGENRE=Other
TTITLE0=Josh Rouse - Directions
TTITLE1=Max De Castro - Bailarinas
TTITLE2=Supreme Beings of Leisure - Never The Same
TTITLE3=Kelly Joe Phelps - Good Night Irene
TTITLE4=Elwood - Red Wagon
TTITLE5=Pedro Mariano - Grande Amor
TTITLE6=Da Lata - Indo
TTITLE7=Luciana Melo - Frente a Frente
TTITLE8=Wilson Simoninha - Agosto
TTITLE9=Jairzinho de Oliveira - Chore a Chuva
TTITLE10=Jess Klein - Little White Dove
TTITLE11=Multimídia
EXTD=YEAR: 2001 ID3G: 12
EXTT0=
EXTT1=
EXTT2=
EXTT3=
EXTT4=
EXTT5=
EXTT6=
EXTT7=
EXTT8=
EXTT9=
EXTT10=
EXTT11=
PLAYORDER=
